{
	"asset":{
		"generator":"Khronos glTF Blender I/O v3.5.30",
		"version":"2.0"
	},
	"extensionsUsed":[
		"KHR_materials_specular",
		"KHR_materials_ior"
	],
	"scene":0,
	"scenes":[
		{
			"name":"Scene",
			"nodes":[
				0
			]
		}
	],
	"nodes":[
		{
			"mesh":0,
			"name":"TQ_ARD_D7-node.001",
			"translation":[
				-0.1706191897392273,
				1.1669429540634155,
				0.0035560789983719587
			]
		}
	],
	"materials":[
		{
			"doubleSided":true,
			"extensions":{
				"KHR_materials_specular":{
					"specularColorFactor":[
						0,
						0,
						0
					]
				},
				"KHR_materials_ior":{
					"ior":0
				}
			},
			"name":"a1",
			"pbrMetallicRoughness":{
				"baseColorFactor":[
					0.318538635969162,
					0.19185739755630493,
					0.05194927006959915,
					1
				],
				"metallicFactor":0,
				"roughnessFactor":0.5
			}
		},
		{
			"doubleSided":true,
			"extensions":{
				"KHR_materials_specular":{
					"specularColorFactor":[
						0,
						0,
						0
					]
				},
				"KHR_materials_ior":{
					"ior":0
				}
			},
			"name":"a2",
			"pbrMetallicRoughness":{
				"baseColorFactor":[
					0.28100940585136414,
					0.13795529305934906,
					0.03853278607130051,
					1
				],
				"metallicFactor":0,
				"roughnessFactor":0.5
			}
		},
		{
			"doubleSided":true,
			"extensions":{
				"KHR_materials_specular":{
					"specularColorFactor":[
						0,
						0,
						0
					]
				},
				"KHR_materials_ior":{
					"ior":0
				}
			},
			"name":"a3",
			"pbrMetallicRoughness":{
				"baseColorFactor":[
					0,
					0,
					0,
					1
				],
				"metallicFactor":0,
				"roughnessFactor":0.5
			}
		}
	],
	"meshes":[
		{
			"name":"TQ_ARD_D7-geom.002",
			"primitives":[
				{
					"attributes":{
						"POSITION":0,
						"TEXCOORD_0":1,
						"TEXCOORD_1":2,
						"TEXCOORD_2":3,
						"TEXCOORD_3":4,
						"TEXCOORD_4":5,
						"TEXCOORD_5":6,
						"TEXCOORD_6":7,
						"TEXCOORD_7":8,
						"TEXCOORD_8":9,
						"TEXCOORD_9":10,
						"TEXCOORD_10":11,
						"TEXCOORD_11":12,
						"TEXCOORD_12":13,
						"NORMAL":14
					},
					"indices":15,
					"material":0
				},
				{
					"attributes":{
						"POSITION":16,
						"TEXCOORD_0":17,
						"TEXCOORD_1":18,
						"TEXCOORD_2":19,
						"TEXCOORD_3":20,
						"TEXCOORD_4":21,
						"TEXCOORD_5":22,
						"TEXCOORD_6":23,
						"TEXCOORD_7":24,
						"TEXCOORD_8":25,
						"TEXCOORD_9":26,
						"TEXCOORD_10":27,
						"TEXCOORD_11":28,
						"TEXCOORD_12":29,
						"NORMAL":30
					},
					"indices":31,
					"material":1
				},
				{
					"attributes":{
						"POSITION":32,
						"TEXCOORD_0":33,
						"TEXCOORD_1":34,
						"TEXCOORD_2":35,
						"TEXCOORD_3":36,
						"TEXCOORD_4":37,
						"TEXCOORD_5":38,
						"TEXCOORD_6":39,
						"TEXCOORD_7":40,
						"TEXCOORD_8":41,
						"TEXCOORD_9":42,
						"TEXCOORD_10":43,
						"TEXCOORD_11":44,
						"TEXCOORD_12":45,
						"NORMAL":46
					},
					"indices":47,
					"material":2
				}
			]
		}
	],
	"accessors":[
		{
			"bufferView":0,
			"componentType":5126,
			"count":2239,
			"max":[
				0.4425867199897766,
				0.3602581024169922,
				0.35371389985084534
			],
			"min":[
				-0.04244042932987213,
				-1.6219639778137207,
				-0.35164541006088257
			],
			"type":"VEC3"
		},
		{
			"bufferView":1,
			"componentType":5126,
			"count":2239,
			"type":"VEC2"
		},
		{
			"bufferView":2,
			"componentType":5126,
			"count":2239,
			"type":"VEC2"
		},
		{
			"bufferView":3,
			"componentType":5126,
			"count":2239,
			"type":"VEC2"
		},
		{
			"bufferView":4,
			"componentType":5126,
			"count":2239,
			"type":"VEC2"
		},
		{
			"bufferView":5,
			"componentType":5126,
			"count":2239,
			"type":"VEC2"
		},
		{
			"bufferView":6,
			"componentType":5126,
			"count":2239,
			"type":"VEC2"
		},
		{
			"bufferView":7,
			"componentType":5126,
			"count":2239,
			"type":"VEC2"
		},
		{
			"bufferView":8,
			"componentType":5126,
			"count":2239,
			"type":"VEC2"
		},
		{
			"bufferView":9,
			"componentType":5126,
			"count":2239,
			"type":"VEC2"
		},
		{
			"bufferView":10,
			"componentType":5126,
			"count":2239,
			"type":"VEC2"
		},
		{
			"bufferView":11,
			"componentType":5126,
			"count":2239,
			"type":"VEC2"
		},
		{
			"bufferView":12,
			"componentType":5126,
			"count":2239,
			"type":"VEC2"
		},
		{
			"bufferView":13,
			"componentType":5126,
			"count":2239,
			"type":"VEC2"
		},
		{
			"bufferView":14,
			"componentType":5126,
			"count":2239,
			"type":"VEC3"
		},
		{
			"bufferView":15,
			"componentType":5123,
			"count":5664,
			"type":"SCALAR"
		},
		{
			"bufferView":16,
			"componentType":5126,
			"count":2286,
			"max":[
				0.4425867199897766,
				0.3602581024169922,
				0.35371389985084534
			],
			"min":[
				-0.04244042932987213,
				-1.6219639778137207,
				-0.35164541006088257
			],
			"type":"VEC3"
		},
		{
			"bufferView":17,
			"componentType":5126,
			"count":2286,
			"type":"VEC2"
		},
		{
			"bufferView":18,
			"componentType":5126,
			"count":2286,
			"type":"VEC2"
		},
		{
			"bufferView":19,
			"componentType":5126,
			"count":2286,
			"type":"VEC2"
		},
		{
			"bufferView":20,
			"componentType":5126,
			"count":2286,
			"type":"VEC2"
		},
		{
			"bufferView":21,
			"componentType":5126,
			"count":2286,
			"type":"VEC2"
		},
		{
			"bufferView":22,
			"componentType":5126,
			"count":2286,
			"type":"VEC2"
		},
		{
			"bufferView":23,
			"componentType":5126,
			"count":2286,
			"type":"VEC2"
		},
		{
			"bufferView":24,
			"componentType":5126,
			"count":2286,
			"type":"VEC2"
		},
		{
			"bufferView":25,
			"componentType":5126,
			"count":2286,
			"type":"VEC2"
		},
		{
			"bufferView":26,
			"componentType":5126,
			"count":2286,
			"type":"VEC2"
		},
		{
			"bufferView":27,
			"componentType":5126,
			"count":2286,
			"type":"VEC2"
		},
		{
			"bufferView":28,
			"componentType":5126,
			"count":2286,
			"type":"VEC2"
		},
		{
			"bufferView":29,
			"componentType":5126,
			"count":2286,
			"type":"VEC2"
		},
		{
			"bufferView":30,
			"componentType":5126,
			"count":2286,
			"type":"VEC3"
		},
		{
			"bufferView":31,
			"componentType":5123,
			"count":5664,
			"type":"SCALAR"
		},
		{
			"bufferView":32,
			"componentType":5126,
			"count":6634,
			"max":[
				0.4425867199897766,
				0.3602581024169922,
				0.35371389985084534
			],
			"min":[
				-0.04244042932987213,
				-1.6219639778137207,
				-0.35164541006088257
			],
			"type":"VEC3"
		},
		{
			"bufferView":33,
			"componentType":5126,
			"count":6634,
			"type":"VEC2"
		},
		{
			"bufferView":34,
			"componentType":5126,
			"count":6634,
			"type":"VEC2"
		},
		{
			"bufferView":35,
			"componentType":5126,
			"count":6634,
			"type":"VEC2"
		},
		{
			"bufferView":36,
			"componentType":5126,
			"count":6634,
			"type":"VEC2"
		},
		{
			"bufferView":37,
			"componentType":5126,
			"count":6634,
			"type":"VEC2"
		},
		{
			"bufferView":38,
			"componentType":5126,
			"count":6634,
			"type":"VEC2"
		},
		{
			"bufferView":39,
			"componentType":5126,
			"count":6634,
			"type":"VEC2"
		},
		{
			"bufferView":40,
			"componentType":5126,
			"count":6634,
			"type":"VEC2"
		},
		{
			"bufferView":41,
			"componentType":5126,
			"count":6634,
			"type":"VEC2"
		},
		{
			"bufferView":42,
			"componentType":5126,
			"count":6634,
			"type":"VEC2"
		},
		{
			"bufferView":43,
			"componentType":5126,
			"count":6634,
			"type":"VEC2"
		},
		{
			"bufferView":44,
			"componentType":5126,
			"count":6634,
			"type":"VEC2"
		},
		{
			"bufferView":45,
			"componentType":5126,
			"count":6634,
			"type":"VEC2"
		},
		{
			"bufferView":46,
			"componentType":5126,
			"count":6634,
			"type":"VEC3"
		},
		{
			"bufferView":47,
			"componentType":5123,
			"count":11262,
			"type":"SCALAR"
		}
	],
	"bufferViews":[
		{
			"buffer":0,
			"byteLength":26868,
			"byteOffset":0,
			"target":34962
		},
		{
			"buffer":0,
			"byteLength":17912,
			"byteOffset":26868,
			"target":34962
		},
		{
			"buffer":0,
			"byteLength":17912,
			"byteOffset":44780,
			"target":34962
		},
		{
			"buffer":0,
			"byteLength":17912,
			"byteOffset":62692,
			"target":34962
		},
		{
			"buffer":0,
			"byteLength":17912,
			"byteOffset":80604,
			"target":34962
		},
		{
			"buffer":0,
			"byteLength":17912,
			"byteOffset":98516,
			"target":34962
		},
		{
			"buffer":0,
			"byteLength":17912,
			"byteOffset":116428,
			"target":34962
		},
		{
			"buffer":0,
			"byteLength":17912,
			"byteOffset":134340,
			"target":34962
		},
		{
			"buffer":0,
			"byteLength":17912,
			"byteOffset":152252,
			"target":34962
		},
		{
			"buffer":0,
			"byteLength":17912,
			"byteOffset":170164,
			"target":34962
		},
		{
			"buffer":0,
			"byteLength":17912,
			"byteOffset":188076,
			"target":34962
		},
		{
			"buffer":0,
			"byteLength":17912,
			"byteOffset":205988,
			"target":34962
		},
		{
			"buffer":0,
			"byteLength":17912,
			"byteOffset":223900,
			"target":34962
		},
		{
			"buffer":0,
			"byteLength":17912,
			"byteOffset":241812,
			"target":34962
		},
		{
			"buffer":0,
			"byteLength":26868,
			"byteOffset":259724,
			"target":34962
		},
		{
			"buffer":0,
			"byteLength":11328,
			"byteOffset":286592,
			"target":34963
		},
		{
			"buffer":0,
			"byteLength":27432,
			"byteOffset":297920,
			"target":34962
		},
		{
			"buffer":0,
			"byteLength":18288,
			"byteOffset":325352,
			"target":34962
		},
		{
			"buffer":0,
			"byteLength":18288,
			"byteOffset":343640,
			"target":34962
		},
		{
			"buffer":0,
			"byteLength":18288,
			"byteOffset":361928,
			"target":34962
		},
		{
			"buffer":0,
			"byteLength":18288,
			"byteOffset":380216,
			"target":34962
		},
		{
			"buffer":0,
			"byteLength":18288,
			"byteOffset":398504,
			"target":34962
		},
		{
			"buffer":0,
			"byteLength":18288,
			"byteOffset":416792,
			"target":34962
		},
		{
			"buffer":0,
			"byteLength":18288,
			"byteOffset":435080,
			"target":34962
		},
		{
			"buffer":0,
			"byteLength":18288,
			"byteOffset":453368,
			"target":34962
		},
		{
			"buffer":0,
			"byteLength":18288,
			"byteOffset":471656,
			"target":34962
		},
		{
			"buffer":0,
			"byteLength":18288,
			"byteOffset":489944,
			"target":34962
		},
		{
			"buffer":0,
			"byteLength":18288,
			"byteOffset":508232,
			"target":34962
		},
		{
			"buffer":0,
			"byteLength":18288,
			"byteOffset":526520,
			"target":34962
		},
		{
			"buffer":0,
			"byteLength":18288,
			"byteOffset":544808,
			"target":34962
		},
		{
			"buffer":0,
			"byteLength":27432,
			"byteOffset":563096,
			"target":34962
		},
		{
			"buffer":0,
			"byteLength":11328,
			"byteOffset":590528,
			"target":34963
		},
		{
			"buffer":0,
			"byteLength":79608,
			"byteOffset":601856,
			"target":34962
		},
		{
			"buffer":0,
			"byteLength":53072,
			"byteOffset":681464,
			"target":34962
		},
		{
			"buffer":0,
			"byteLength":53072,
			"byteOffset":734536,
			"target":34962
		},
		{
			"buffer":0,
			"byteLength":53072,
			"byteOffset":787608,
			"target":34962
		},
		{
			"buffer":0,
			"byteLength":53072,
			"byteOffset":840680,
			"target":34962
		},
		{
			"buffer":0,
			"byteLength":53072,
			"byteOffset":893752,
			"target":34962
		},
		{
			"buffer":0,
			"byteLength":53072,
			"byteOffset":946824,
			"target":34962
		},
		{
			"buffer":0,
			"byteLength":53072,
			"byteOffset":999896,
			"target":34962
		},
		{
			"buffer":0,
			"byteLength":53072,
			"byteOffset":1052968,
			"target":34962
		},
		{
			"buffer":0,
			"byteLength":53072,
			"byteOffset":1106040,
			"target":34962
		},
		{
			"buffer":0,
			"byteLength":53072,
			"byteOffset":1159112,
			"target":34962
		},
		{
			"buffer":0,
			"byteLength":53072,
			"byteOffset":1212184,
			"target":34962
		},
		{
			"buffer":0,
			"byteLength":53072,
			"byteOffset":1265256,
			"target":34962
		},
		{
			"buffer":0,
			"byteLength":53072,
			"byteOffset":1318328,
			"target":34962
		},
		{
			"buffer":0,
			"byteLength":79608,
			"byteOffset":1371400,
			"target":34962
		},
		{
			"buffer":0,
			"byteLength":22524,
			"byteOffset":1451008,
			"target":34963
		}
	],
	"buffers":[
		{
			"byteLength":1473532,
			"uri":"data:application/octet-stream;base64,"
		}
	]
}
