{
	"asset":{
		"generator":"Khronos glTF Blender I/O v3.5.30",
		"version":"2.0"
	},
	"extensionsUsed":[
		"KHR_materials_specular",
		"KHR_materials_ior"
	],
	"scene":0,
	"scenes":[
		{
			"name":"Scene",
			"nodes":[
				0
			]
		}
	],
	"nodes":[
		{
			"mesh":0,
			"name":"TQ_ARD_D7-node.001",
			"translation":[
				-0.030609099194407463,
				-0.0038729128427803516,
				0.2631710469722748
			]
		}
	],
	"materials":[
		{
			"doubleSided":true,
			"extensions":{
				"KHR_materials_specular":{
					"specularColorFactor":[
						0,
						0,
						0
					]
				},
				"KHR_materials_ior":{
					"ior":0
				}
			},
			"name":"a1",
			"pbrMetallicRoughness":{
				"baseColorFactor":[
					0.318538635969162,
					0.19185739755630493,
					0.05194927006959915,
					1
				],
				"metallicFactor":0,
				"roughnessFactor":0.5
			}
		},
		{
			"doubleSided":true,
			"extensions":{
				"KHR_materials_specular":{
					"specularColorFactor":[
						0,
						0,
						0
					]
				},
				"KHR_materials_ior":{
					"ior":0
				}
			},
			"name":"a2",
			"pbrMetallicRoughness":{
				"baseColorFactor":[
					0.28100940585136414,
					0.13795529305934906,
					0.03853278607130051,
					1
				],
				"metallicFactor":0,
				"roughnessFactor":0.5
			}
		},
		{
			"doubleSided":true,
			"extensions":{
				"KHR_materials_specular":{
					"specularColorFactor":[
						0,
						0,
						0
					]
				},
				"KHR_materials_ior":{
					"ior":0
				}
			},
			"name":"a3",
			"pbrMetallicRoughness":{
				"baseColorFactor":[
					0,
					0,
					0,
					1
				],
				"metallicFactor":0,
				"roughnessFactor":0.5
			}
		}
	],
	"meshes":[
		{
			"name":"david",
			"primitives":[
				{
					"attributes":{
						"POSITION":0,
						"TEXCOORD_0":1,
						"TEXCOORD_1":2,
						"TEXCOORD_2":3,
						"TEXCOORD_3":4,
						"TEXCOORD_4":5,
						"TEXCOORD_5":6,
						"TEXCOORD_6":7,
						"TEXCOORD_7":8,
						"TEXCOORD_8":9,
						"TEXCOORD_9":10,
						"TEXCOORD_10":11,
						"TEXCOORD_11":12,
						"TEXCOORD_12":13,
						"NORMAL":14
					},
					"indices":15,
					"material":0
				},
				{
					"attributes":{
						"POSITION":16,
						"TEXCOORD_0":17,
						"TEXCOORD_1":18,
						"TEXCOORD_2":19,
						"TEXCOORD_3":20,
						"TEXCOORD_4":21,
						"TEXCOORD_5":22,
						"TEXCOORD_6":23,
						"TEXCOORD_7":24,
						"TEXCOORD_8":25,
						"TEXCOORD_9":26,
						"TEXCOORD_10":27,
						"TEXCOORD_11":28,
						"TEXCOORD_12":29,
						"NORMAL":30
					},
					"indices":31,
					"material":1
				},
				{
					"attributes":{
						"POSITION":32,
						"TEXCOORD_0":33,
						"TEXCOORD_1":34,
						"TEXCOORD_2":35,
						"TEXCOORD_3":36,
						"TEXCOORD_4":37,
						"TEXCOORD_5":38,
						"TEXCOORD_6":39,
						"TEXCOORD_7":40,
						"TEXCOORD_8":41,
						"TEXCOORD_9":42,
						"TEXCOORD_10":43,
						"TEXCOORD_11":44,
						"TEXCOORD_12":45,
						"NORMAL":46
					},
					"indices":47,
					"material":2
				}
			]
		}
	],
	"accessors":[
		{
			"bufferView":0,
			"componentType":5126,
			"count":2290,
			"max":[
				0.30257663130760193,
				0.35196223855018616,
				1.2640299797058105
			],
			"min":[
				-0.18245051801204681,
				-0.35339707136154175,
				-0.7181921005249023
			],
			"type":"VEC3"
		},
		{
			"bufferView":1,
			"componentType":5126,
			"count":2290,
			"type":"VEC2"
		},
		{
			"bufferView":2,
			"componentType":5126,
			"count":2290,
			"type":"VEC2"
		},
		{
			"bufferView":3,
			"componentType":5126,
			"count":2290,
			"type":"VEC2"
		},
		{
			"bufferView":4,
			"componentType":5126,
			"count":2290,
			"type":"VEC2"
		},
		{
			"bufferView":5,
			"componentType":5126,
			"count":2290,
			"type":"VEC2"
		},
		{
			"bufferView":6,
			"componentType":5126,
			"count":2290,
			"type":"VEC2"
		},
		{
			"bufferView":7,
			"componentType":5126,
			"count":2290,
			"type":"VEC2"
		},
		{
			"bufferView":8,
			"componentType":5126,
			"count":2290,
			"type":"VEC2"
		},
		{
			"bufferView":9,
			"componentType":5126,
			"count":2290,
			"type":"VEC2"
		},
		{
			"bufferView":10,
			"componentType":5126,
			"count":2290,
			"type":"VEC2"
		},
		{
			"bufferView":11,
			"componentType":5126,
			"count":2290,
			"type":"VEC2"
		},
		{
			"bufferView":12,
			"componentType":5126,
			"count":2290,
			"type":"VEC2"
		},
		{
			"bufferView":13,
			"componentType":5126,
			"count":2290,
			"type":"VEC2"
		},
		{
			"bufferView":14,
			"componentType":5126,
			"count":2290,
			"type":"VEC3"
		},
		{
			"bufferView":15,
			"componentType":5123,
			"count":5664,
			"type":"SCALAR"
		},
		{
			"bufferView":16,
			"componentType":5126,
			"count":2295,
			"max":[
				0.30257663130760193,
				0.35196223855018616,
				1.2640299797058105
			],
			"min":[
				-0.18245051801204681,
				-0.35339707136154175,
				-0.7181921005249023
			],
			"type":"VEC3"
		},
		{
			"bufferView":17,
			"componentType":5126,
			"count":2295,
			"type":"VEC2"
		},
		{
			"bufferView":18,
			"componentType":5126,
			"count":2295,
			"type":"VEC2"
		},
		{
			"bufferView":19,
			"componentType":5126,
			"count":2295,
			"type":"VEC2"
		},
		{
			"bufferView":20,
			"componentType":5126,
			"count":2295,
			"type":"VEC2"
		},
		{
			"bufferView":21,
			"componentType":5126,
			"count":2295,
			"type":"VEC2"
		},
		{
			"bufferView":22,
			"componentType":5126,
			"count":2295,
			"type":"VEC2"
		},
		{
			"bufferView":23,
			"componentType":5126,
			"count":2295,
			"type":"VEC2"
		},
		{
			"bufferView":24,
			"componentType":5126,
			"count":2295,
			"type":"VEC2"
		},
		{
			"bufferView":25,
			"componentType":5126,
			"count":2295,
			"type":"VEC2"
		},
		{
			"bufferView":26,
			"componentType":5126,
			"count":2295,
			"type":"VEC2"
		},
		{
			"bufferView":27,
			"componentType":5126,
			"count":2295,
			"type":"VEC2"
		},
		{
			"bufferView":28,
			"componentType":5126,
			"count":2295,
			"type":"VEC2"
		},
		{
			"bufferView":29,
			"componentType":5126,
			"count":2295,
			"type":"VEC2"
		},
		{
			"bufferView":30,
			"componentType":5126,
			"count":2295,
			"type":"VEC3"
		},
		{
			"bufferView":31,
			"componentType":5123,
			"count":5664,
			"type":"SCALAR"
		},
		{
			"bufferView":32,
			"componentType":5126,
			"count":6555,
			"max":[
				0.30257663130760193,
				0.35196223855018616,
				1.2640299797058105
			],
			"min":[
				-0.18245051801204681,
				-0.35339707136154175,
				-0.7181921005249023
			],
			"type":"VEC3"
		},
		{
			"bufferView":33,
			"componentType":5126,
			"count":6555,
			"type":"VEC2"
		},
		{
			"bufferView":34,
			"componentType":5126,
			"count":6555,
			"type":"VEC2"
		},
		{
			"bufferView":35,
			"componentType":5126,
			"count":6555,
			"type":"VEC2"
		},
		{
			"bufferView":36,
			"componentType":5126,
			"count":6555,
			"type":"VEC2"
		},
		{
			"bufferView":37,
			"componentType":5126,
			"count":6555,
			"type":"VEC2"
		},
		{
			"bufferView":38,
			"componentType":5126,
			"count":6555,
			"type":"VEC2"
		},
		{
			"bufferView":39,
			"componentType":5126,
			"count":6555,
			"type":"VEC2"
		},
		{
			"bufferView":40,
			"componentType":5126,
			"count":6555,
			"type":"VEC2"
		},
		{
			"bufferView":41,
			"componentType":5126,
			"count":6555,
			"type":"VEC2"
		},
		{
			"bufferView":42,
			"componentType":5126,
			"count":6555,
			"type":"VEC2"
		},
		{
			"bufferView":43,
			"componentType":5126,
			"count":6555,
			"type":"VEC2"
		},
		{
			"bufferView":44,
			"componentType":5126,
			"count":6555,
			"type":"VEC2"
		},
		{
			"bufferView":45,
			"componentType":5126,
			"count":6555,
			"type":"VEC2"
		},
		{
			"bufferView":46,
			"componentType":5126,
			"count":6555,
			"type":"VEC3"
		},
		{
			"bufferView":47,
			"componentType":5123,
			"count":11262,
			"type":"SCALAR"
		}
	],
	"bufferViews":[
		{
			"buffer":0,
			"byteLength":27480,
			"byteOffset":0,
			"target":34962
		},
		{
			"buffer":0,
			"byteLength":18320,
			"byteOffset":27480,
			"target":34962
		},
		{
			"buffer":0,
			"byteLength":18320,
			"byteOffset":45800,
			"target":34962
		},
		{
			"buffer":0,
			"byteLength":18320,
			"byteOffset":64120,
			"target":34962
		},
		{
			"buffer":0,
			"byteLength":18320,
			"byteOffset":82440,
			"target":34962
		},
		{
			"buffer":0,
			"byteLength":18320,
			"byteOffset":100760,
			"target":34962
		},
		{
			"buffer":0,
			"byteLength":18320,
			"byteOffset":119080,
			"target":34962
		},
		{
			"buffer":0,
			"byteLength":18320,
			"byteOffset":137400,
			"target":34962
		},
		{
			"buffer":0,
			"byteLength":18320,
			"byteOffset":155720,
			"target":34962
		},
		{
			"buffer":0,
			"byteLength":18320,
			"byteOffset":174040,
			"target":34962
		},
		{
			"buffer":0,
			"byteLength":18320,
			"byteOffset":192360,
			"target":34962
		},
		{
			"buffer":0,
			"byteLength":18320,
			"byteOffset":210680,
			"target":34962
		},
		{
			"buffer":0,
			"byteLength":18320,
			"byteOffset":229000,
			"target":34962
		},
		{
			"buffer":0,
			"byteLength":18320,
			"byteOffset":247320,
			"target":34962
		},
		{
			"buffer":0,
			"byteLength":27480,
			"byteOffset":265640,
			"target":34962
		},
		{
			"buffer":0,
			"byteLength":11328,
			"byteOffset":293120,
			"target":34963
		},
		{
			"buffer":0,
			"byteLength":27540,
			"byteOffset":304448,
			"target":34962
		},
		{
			"buffer":0,
			"byteLength":18360,
			"byteOffset":331988,
			"target":34962
		},
		{
			"buffer":0,
			"byteLength":18360,
			"byteOffset":350348,
			"target":34962
		},
		{
			"buffer":0,
			"byteLength":18360,
			"byteOffset":368708,
			"target":34962
		},
		{
			"buffer":0,
			"byteLength":18360,
			"byteOffset":387068,
			"target":34962
		},
		{
			"buffer":0,
			"byteLength":18360,
			"byteOffset":405428,
			"target":34962
		},
		{
			"buffer":0,
			"byteLength":18360,
			"byteOffset":423788,
			"target":34962
		},
		{
			"buffer":0,
			"byteLength":18360,
			"byteOffset":442148,
			"target":34962
		},
		{
			"buffer":0,
			"byteLength":18360,
			"byteOffset":460508,
			"target":34962
		},
		{
			"buffer":0,
			"byteLength":18360,
			"byteOffset":478868,
			"target":34962
		},
		{
			"buffer":0,
			"byteLength":18360,
			"byteOffset":497228,
			"target":34962
		},
		{
			"buffer":0,
			"byteLength":18360,
			"byteOffset":515588,
			"target":34962
		},
		{
			"buffer":0,
			"byteLength":18360,
			"byteOffset":533948,
			"target":34962
		},
		{
			"buffer":0,
			"byteLength":18360,
			"byteOffset":552308,
			"target":34962
		},
		{
			"buffer":0,
			"byteLength":27540,
			"byteOffset":570668,
			"target":34962
		},
		{
			"buffer":0,
			"byteLength":11328,
			"byteOffset":598208,
			"target":34963
		},
		{
			"buffer":0,
			"byteLength":78660,
			"byteOffset":609536,
			"target":34962
		},
		{
			"buffer":0,
			"byteLength":52440,
			"byteOffset":688196,
			"target":34962
		},
		{
			"buffer":0,
			"byteLength":52440,
			"byteOffset":740636,
			"target":34962
		},
		{
			"buffer":0,
			"byteLength":52440,
			"byteOffset":793076,
			"target":34962
		},
		{
			"buffer":0,
			"byteLength":52440,
			"byteOffset":845516,
			"target":34962
		},
		{
			"buffer":0,
			"byteLength":52440,
			"byteOffset":897956,
			"target":34962
		},
		{
			"buffer":0,
			"byteLength":52440,
			"byteOffset":950396,
			"target":34962
		},
		{
			"buffer":0,
			"byteLength":52440,
			"byteOffset":1002836,
			"target":34962
		},
		{
			"buffer":0,
			"byteLength":52440,
			"byteOffset":1055276,
			"target":34962
		},
		{
			"buffer":0,
			"byteLength":52440,
			"byteOffset":1107716,
			"target":34962
		},
		{
			"buffer":0,
			"byteLength":52440,
			"byteOffset":1160156,
			"target":34962
		},
		{
			"buffer":0,
			"byteLength":52440,
			"byteOffset":1212596,
			"target":34962
		},
		{
			"buffer":0,
			"byteLength":52440,
			"byteOffset":1265036,
			"target":34962
		},
		{
			"buffer":0,
			"byteLength":52440,
			"byteOffset":1317476,
			"target":34962
		},
		{
			"buffer":0,
			"byteLength":78660,
			"byteOffset":1369916,
			"target":34962
		},
		{
			"buffer":0,
			"byteLength":22524,
			"byteOffset":1448576,
			"target":34963
		}
	],
	"buffers":[
		{
			"byteLength":1471100,
			"uri":"data:application/octet-stream;base64,"
		}
	]
}
