{
	"asset":{
		"generator":"Khronos glTF Blender I/O v3.5.30",
		"version":"2.0"
	},
	"extensionsUsed":[
		"KHR_materials_specular",
		"KHR_materials_ior"
	],
	"scene":0,
	"scenes":[
		{
			"name":"Scene",
			"nodes":[
				0
			]
		}
	],
	"nodes":[
		{
			"mesh":0,
			"name":"TQ_ARD_D7-node.001"
		}
	],
	"materials":[
		{
			"doubleSided":true,
			"extensions":{
				"KHR_materials_specular":{
					"specularColorFactor":[
						0,
						0,
						0
					]
				},
				"KHR_materials_ior":{
					"ior":0
				}
			},
			"name":"a1",
			"pbrMetallicRoughness":{
				"baseColorFactor":[
					0.318538635969162,
					0.19185739755630493,
					0.05194927006959915,
					1
				],
				"metallicFactor":0,
				"roughnessFactor":0.5
			}
		},
		{
			"doubleSided":true,
			"extensions":{
				"KHR_materials_specular":{
					"specularColorFactor":[
						0,
						0,
						0
					]
				},
				"KHR_materials_ior":{
					"ior":0
				}
			},
			"name":"a2",
			"pbrMetallicRoughness":{
				"baseColorFactor":[
					0.28100940585136414,
					0.13795529305934906,
					0.03853278607130051,
					1
				],
				"metallicFactor":0,
				"roughnessFactor":0.5
			}
		},
		{
			"doubleSided":true,
			"extensions":{
				"KHR_materials_specular":{
					"specularColorFactor":[
						0,
						0,
						0
					]
				},
				"KHR_materials_ior":{
					"ior":0
				}
			},
			"name":"a3",
			"pbrMetallicRoughness":{
				"baseColorFactor":[
					0,
					0,
					0,
					1
				],
				"metallicFactor":0,
				"roughnessFactor":0.5
			}
		}
	],
	"meshes":[
		{
			"name":"TQ_ARD_D7-geom.002",
			"primitives":[
				{
					"attributes":{
						"POSITION":0,
						"TEXCOORD_0":1,
						"TEXCOORD_1":2,
						"TEXCOORD_2":3,
						"TEXCOORD_3":4,
						"TEXCOORD_4":5,
						"TEXCOORD_5":6,
						"TEXCOORD_6":7,
						"TEXCOORD_7":8,
						"TEXCOORD_8":9,
						"TEXCOORD_9":10,
						"TEXCOORD_10":11,
						"TEXCOORD_11":12,
						"TEXCOORD_12":13,
						"NORMAL":14
					},
					"indices":15,
					"material":0
				},
				{
					"attributes":{
						"POSITION":16,
						"TEXCOORD_0":17,
						"TEXCOORD_1":18,
						"TEXCOORD_2":19,
						"TEXCOORD_3":20,
						"TEXCOORD_4":21,
						"TEXCOORD_5":22,
						"TEXCOORD_6":23,
						"TEXCOORD_7":24,
						"TEXCOORD_8":25,
						"TEXCOORD_9":26,
						"TEXCOORD_10":27,
						"TEXCOORD_11":28,
						"TEXCOORD_12":29,
						"NORMAL":30
					},
					"indices":31,
					"material":1
				},
				{
					"attributes":{
						"POSITION":32,
						"TEXCOORD_0":33,
						"TEXCOORD_1":34,
						"TEXCOORD_2":35,
						"TEXCOORD_3":36,
						"TEXCOORD_4":37,
						"TEXCOORD_5":38,
						"TEXCOORD_6":39,
						"TEXCOORD_7":40,
						"TEXCOORD_8":41,
						"TEXCOORD_9":42,
						"TEXCOORD_10":43,
						"TEXCOORD_11":44,
						"TEXCOORD_12":45,
						"NORMAL":46
					},
					"indices":47,
					"material":2
				}
			]
		}
	],
	"accessors":[
		{
			"bufferView":0,
			"componentType":5126,
			"count":2608,
			"max":[
				0.7654035091400146,
				1.5272010564804077,
				-0.4465717673301697
			],
			"min":[
				0.2803764343261719,
				-0.4550210237503052,
				-1.1519310474395752
			],
			"type":"VEC3"
		},
		{
			"bufferView":1,
			"componentType":5126,
			"count":2608,
			"type":"VEC2"
		},
		{
			"bufferView":2,
			"componentType":5126,
			"count":2608,
			"type":"VEC2"
		},
		{
			"bufferView":3,
			"componentType":5126,
			"count":2608,
			"type":"VEC2"
		},
		{
			"bufferView":4,
			"componentType":5126,
			"count":2608,
			"type":"VEC2"
		},
		{
			"bufferView":5,
			"componentType":5126,
			"count":2608,
			"type":"VEC2"
		},
		{
			"bufferView":6,
			"componentType":5126,
			"count":2608,
			"type":"VEC2"
		},
		{
			"bufferView":7,
			"componentType":5126,
			"count":2608,
			"type":"VEC2"
		},
		{
			"bufferView":8,
			"componentType":5126,
			"count":2608,
			"type":"VEC2"
		},
		{
			"bufferView":9,
			"componentType":5126,
			"count":2608,
			"type":"VEC2"
		},
		{
			"bufferView":10,
			"componentType":5126,
			"count":2608,
			"type":"VEC2"
		},
		{
			"bufferView":11,
			"componentType":5126,
			"count":2608,
			"type":"VEC2"
		},
		{
			"bufferView":12,
			"componentType":5126,
			"count":2608,
			"type":"VEC2"
		},
		{
			"bufferView":13,
			"componentType":5126,
			"count":2608,
			"type":"VEC2"
		},
		{
			"bufferView":14,
			"componentType":5126,
			"count":2608,
			"type":"VEC3"
		},
		{
			"bufferView":15,
			"componentType":5123,
			"count":5664,
			"type":"SCALAR"
		},
		{
			"bufferView":16,
			"componentType":5126,
			"count":2587,
			"max":[
				0.7654035091400146,
				1.5272010564804077,
				-0.4465717673301697
			],
			"min":[
				0.2803764343261719,
				-0.4550210237503052,
				-1.1519310474395752
			],
			"type":"VEC3"
		},
		{
			"bufferView":17,
			"componentType":5126,
			"count":2587,
			"type":"VEC2"
		},
		{
			"bufferView":18,
			"componentType":5126,
			"count":2587,
			"type":"VEC2"
		},
		{
			"bufferView":19,
			"componentType":5126,
			"count":2587,
			"type":"VEC2"
		},
		{
			"bufferView":20,
			"componentType":5126,
			"count":2587,
			"type":"VEC2"
		},
		{
			"bufferView":21,
			"componentType":5126,
			"count":2587,
			"type":"VEC2"
		},
		{
			"bufferView":22,
			"componentType":5126,
			"count":2587,
			"type":"VEC2"
		},
		{
			"bufferView":23,
			"componentType":5126,
			"count":2587,
			"type":"VEC2"
		},
		{
			"bufferView":24,
			"componentType":5126,
			"count":2587,
			"type":"VEC2"
		},
		{
			"bufferView":25,
			"componentType":5126,
			"count":2587,
			"type":"VEC2"
		},
		{
			"bufferView":26,
			"componentType":5126,
			"count":2587,
			"type":"VEC2"
		},
		{
			"bufferView":27,
			"componentType":5126,
			"count":2587,
			"type":"VEC2"
		},
		{
			"bufferView":28,
			"componentType":5126,
			"count":2587,
			"type":"VEC2"
		},
		{
			"bufferView":29,
			"componentType":5126,
			"count":2587,
			"type":"VEC2"
		},
		{
			"bufferView":30,
			"componentType":5126,
			"count":2587,
			"type":"VEC3"
		},
		{
			"bufferView":31,
			"componentType":5123,
			"count":5664,
			"type":"SCALAR"
		},
		{
			"bufferView":32,
			"componentType":5126,
			"count":6765,
			"max":[
				0.7654035091400146,
				1.5272010564804077,
				-0.4465717673301697
			],
			"min":[
				0.2803764343261719,
				-0.4550210237503052,
				-1.1519310474395752
			],
			"type":"VEC3"
		},
		{
			"bufferView":33,
			"componentType":5126,
			"count":6765,
			"type":"VEC2"
		},
		{
			"bufferView":34,
			"componentType":5126,
			"count":6765,
			"type":"VEC2"
		},
		{
			"bufferView":35,
			"componentType":5126,
			"count":6765,
			"type":"VEC2"
		},
		{
			"bufferView":36,
			"componentType":5126,
			"count":6765,
			"type":"VEC2"
		},
		{
			"bufferView":37,
			"componentType":5126,
			"count":6765,
			"type":"VEC2"
		},
		{
			"bufferView":38,
			"componentType":5126,
			"count":6765,
			"type":"VEC2"
		},
		{
			"bufferView":39,
			"componentType":5126,
			"count":6765,
			"type":"VEC2"
		},
		{
			"bufferView":40,
			"componentType":5126,
			"count":6765,
			"type":"VEC2"
		},
		{
			"bufferView":41,
			"componentType":5126,
			"count":6765,
			"type":"VEC2"
		},
		{
			"bufferView":42,
			"componentType":5126,
			"count":6765,
			"type":"VEC2"
		},
		{
			"bufferView":43,
			"componentType":5126,
			"count":6765,
			"type":"VEC2"
		},
		{
			"bufferView":44,
			"componentType":5126,
			"count":6765,
			"type":"VEC2"
		},
		{
			"bufferView":45,
			"componentType":5126,
			"count":6765,
			"type":"VEC2"
		},
		{
			"bufferView":46,
			"componentType":5126,
			"count":6765,
			"type":"VEC3"
		},
		{
			"bufferView":47,
			"componentType":5123,
			"count":11262,
			"type":"SCALAR"
		}
	],
	"bufferViews":[
		{
			"buffer":0,
			"byteLength":31296,
			"byteOffset":0,
			"target":34962
		},
		{
			"buffer":0,
			"byteLength":20864,
			"byteOffset":31296,
			"target":34962
		},
		{
			"buffer":0,
			"byteLength":20864,
			"byteOffset":52160,
			"target":34962
		},
		{
			"buffer":0,
			"byteLength":20864,
			"byteOffset":73024,
			"target":34962
		},
		{
			"buffer":0,
			"byteLength":20864,
			"byteOffset":93888,
			"target":34962
		},
		{
			"buffer":0,
			"byteLength":20864,
			"byteOffset":114752,
			"target":34962
		},
		{
			"buffer":0,
			"byteLength":20864,
			"byteOffset":135616,
			"target":34962
		},
		{
			"buffer":0,
			"byteLength":20864,
			"byteOffset":156480,
			"target":34962
		},
		{
			"buffer":0,
			"byteLength":20864,
			"byteOffset":177344,
			"target":34962
		},
		{
			"buffer":0,
			"byteLength":20864,
			"byteOffset":198208,
			"target":34962
		},
		{
			"buffer":0,
			"byteLength":20864,
			"byteOffset":219072,
			"target":34962
		},
		{
			"buffer":0,
			"byteLength":20864,
			"byteOffset":239936,
			"target":34962
		},
		{
			"buffer":0,
			"byteLength":20864,
			"byteOffset":260800,
			"target":34962
		},
		{
			"buffer":0,
			"byteLength":20864,
			"byteOffset":281664,
			"target":34962
		},
		{
			"buffer":0,
			"byteLength":31296,
			"byteOffset":302528,
			"target":34962
		},
		{
			"buffer":0,
			"byteLength":11328,
			"byteOffset":333824,
			"target":34963
		},
		{
			"buffer":0,
			"byteLength":31044,
			"byteOffset":345152,
			"target":34962
		},
		{
			"buffer":0,
			"byteLength":20696,
			"byteOffset":376196,
			"target":34962
		},
		{
			"buffer":0,
			"byteLength":20696,
			"byteOffset":396892,
			"target":34962
		},
		{
			"buffer":0,
			"byteLength":20696,
			"byteOffset":417588,
			"target":34962
		},
		{
			"buffer":0,
			"byteLength":20696,
			"byteOffset":438284,
			"target":34962
		},
		{
			"buffer":0,
			"byteLength":20696,
			"byteOffset":458980,
			"target":34962
		},
		{
			"buffer":0,
			"byteLength":20696,
			"byteOffset":479676,
			"target":34962
		},
		{
			"buffer":0,
			"byteLength":20696,
			"byteOffset":500372,
			"target":34962
		},
		{
			"buffer":0,
			"byteLength":20696,
			"byteOffset":521068,
			"target":34962
		},
		{
			"buffer":0,
			"byteLength":20696,
			"byteOffset":541764,
			"target":34962
		},
		{
			"buffer":0,
			"byteLength":20696,
			"byteOffset":562460,
			"target":34962
		},
		{
			"buffer":0,
			"byteLength":20696,
			"byteOffset":583156,
			"target":34962
		},
		{
			"buffer":0,
			"byteLength":20696,
			"byteOffset":603852,
			"target":34962
		},
		{
			"buffer":0,
			"byteLength":20696,
			"byteOffset":624548,
			"target":34962
		},
		{
			"buffer":0,
			"byteLength":31044,
			"byteOffset":645244,
			"target":34962
		},
		{
			"buffer":0,
			"byteLength":11328,
			"byteOffset":676288,
			"target":34963
		},
		{
			"buffer":0,
			"byteLength":81180,
			"byteOffset":687616,
			"target":34962
		},
		{
			"buffer":0,
			"byteLength":54120,
			"byteOffset":768796,
			"target":34962
		},
		{
			"buffer":0,
			"byteLength":54120,
			"byteOffset":822916,
			"target":34962
		},
		{
			"buffer":0,
			"byteLength":54120,
			"byteOffset":877036,
			"target":34962
		},
		{
			"buffer":0,
			"byteLength":54120,
			"byteOffset":931156,
			"target":34962
		},
		{
			"buffer":0,
			"byteLength":54120,
			"byteOffset":985276,
			"target":34962
		},
		{
			"buffer":0,
			"byteLength":54120,
			"byteOffset":1039396,
			"target":34962
		},
		{
			"buffer":0,
			"byteLength":54120,
			"byteOffset":1093516,
			"target":34962
		},
		{
			"buffer":0,
			"byteLength":54120,
			"byteOffset":1147636,
			"target":34962
		},
		{
			"buffer":0,
			"byteLength":54120,
			"byteOffset":1201756,
			"target":34962
		},
		{
			"buffer":0,
			"byteLength":54120,
			"byteOffset":1255876,
			"target":34962
		},
		{
			"buffer":0,
			"byteLength":54120,
			"byteOffset":1309996,
			"target":34962
		},
		{
			"buffer":0,
			"byteLength":54120,
			"byteOffset":1364116,
			"target":34962
		},
		{
			"buffer":0,
			"byteLength":54120,
			"byteOffset":1418236,
			"target":34962
		},
		{
			"buffer":0,
			"byteLength":81180,
			"byteOffset":1472356,
			"target":34962
		},
		{
			"buffer":0,
			"byteLength":22524,
			"byteOffset":1553536,
			"target":34963
		}
	],
	"buffers":[
		{
			"byteLength":1576060,
			"uri":"data:application/octet-stream;base64,"
		}
	]
}
